<svg xmlns="http://www.w3.org/2000/svg" xmlns:xlink="http://www.w3.org/1999/xlink" preserveAspectRatio="xMidYMid meet" version="1.0" viewBox="0.0 0.0 495.2 500.0" zoomAndPan="magnify" style="fill: rgb(0, 0, 0);" original_string_length="4723"><g id="__id260_s1w77bue0b"><g id="__id261_s1w77bue0b"><path d="M17.9326,456.9331055V64.3967667c0-21.141861,17.1388683-38.2807274,38.2807312-38.2807274h382.8073425 c21.1418457,0,38.2807312,17.1388664,38.2807312,38.2807274v392.5363464c0,21.1418457-17.1388855,38.2807312-38.2807312,38.2807312 H56.2133293C35.0714684,495.2138367,17.9326,478.0749512,17.9326,456.9331055z" style="fill: rgb(243, 240, 220);"/></g><g id="__id262_s1w77bue0b"><path d="M439.0204468,500H56.2131424c-23.7455482,0-43.0658226-19.320282-43.0658226-43.0658264V64.3977966 c0-23.7455482,19.3202744-43.0658188,43.0658226-43.0658188h382.807312c23.745575,0,43.0658264,19.3202724,43.0658264,43.0658188 v392.536377C482.0862732,480.679718,462.7660217,500,439.0204468,500z M56.2131424,30.9021587 c-18.469799,0-33.4956398,15.0258389-33.4956398,33.495636v392.536377c0,18.4697876,15.0258408,33.495636,33.4956398,33.495636 h382.807312c18.4698181,0,33.4956665-15.0258484,33.4956665-33.495636V64.3977966 c0-18.469799-15.0258484-33.495636-33.4956665-33.495636H56.2131424z" style="fill: rgb(0, 0, 0);"/></g><g id="__id263_s1w77bue0b"><path d="M477.3014832,64.3966293c0-21.141552-17.1388855-38.2807312-38.2807312-38.2807312H56.2134361 c-21.1418457,0-38.2807312,17.1391792-38.2807312,38.2807312v66.0875931h459.3687744V64.3966293z" style="fill: rgb(62, 165, 106);"/></g><g id="__id264_s1w77bue0b"><path d="M477.301178,135.2699585H17.9324112c-2.6425486,0-4.7850924-2.1425476-4.7850924-4.7850952V64.3977966 c0-23.7455482,19.3202744-43.0658188,43.0658226-43.0658188h382.807312c23.745575,0,43.0658264,19.3202724,43.0658264,43.0658188 v66.0870667C482.0862732,133.1274109,479.9437256,135.2699585,477.301178,135.2699585z M22.7175026,125.6997757h449.7986145 V64.3977966c0-18.469799-15.0258484-33.495636-33.4956665-33.495636H56.2131424 c-18.469799,0-33.4956398,15.0258389-33.4956398,33.495636V125.6997757z" style="fill: rgb(0, 0, 0);"/></g><g id="__id265_s1w77bue0b"><path d="M490.4485168,135.2699585H4.7850914C2.1425433,135.2699585,0,133.1274109,0,130.4848633 s2.1425433-4.7850876,4.7850914-4.7850876h485.6634216c2.6425476,0,4.7850952,2.14254,4.7850952,4.7850876 S493.0910645,135.2699585,490.4485168,135.2699585z" style="fill: rgb(0, 0, 0);"/></g><g id="__id266_s1w77bue0b"><path d="M382.9101257,226.5137939H112.3234787c-2.6425476,0-4.7850876-2.1425323-4.7850876-4.78508 s2.14254-4.7850952,4.7850876-4.7850952h270.5866394c2.6425476,0,4.7850952,2.1425476,4.7850952,4.7850952 S385.5526733,226.5137939,382.9101257,226.5137939z" style="fill: rgb(0, 0, 0);"/></g><g id="__id267_s1w77bue0b"><path d="M382.9101257,317.7576294H112.3234787c-2.6425476,0-4.7850876-2.1425171-4.7850876-4.7850647 s2.14254-4.7850952,4.7850876-4.7850952h270.5866394c2.6425476,0,4.7850952,2.1425476,4.7850952,4.7850952 S385.5526733,317.7576294,382.9101257,317.7576294z" style="fill: rgb(0, 0, 0);"/></g><g id="__id268_s1w77bue0b"><path d="M283.1474915,409.0038147H112.3234787c-2.6425476,0-4.7850876-2.1425476-4.7850876-4.7850952 s2.14254-4.7850647,4.7850876-4.7850647h170.8240051c2.6425476,0,4.7850952,2.1425171,4.7850952,4.7850647 S285.7900391,409.0038147,283.1474915,409.0038147z" style="fill: rgb(0, 0, 0);"/></g><g id="__id269_s1w77bue0b"><path d="M320.9796448,52.2341347c-2.6425476,0-4.7850952-2.1425438-4.7850952-4.7850914V4.7850914 C316.1945496,2.1425433,318.3370972,0,320.9796448,0s4.7850952,2.1425433,4.7850952,4.7850914v42.6639519 C325.76474,50.0915909,323.6221924,52.2341347,320.9796448,52.2341347z" style="fill: rgb(0, 0, 0);"/></g><g id="__id270_s1w77bue0b"><path d="M247.6191406,52.2341347c-2.6425476,0-4.7850952-2.1425438-4.7850952-4.7850914V4.7850914 C242.8340454,2.1425433,244.976593,0,247.6191406,0s4.78508,2.1425433,4.78508,4.7850914v42.6639519 C252.4042206,50.0915909,250.2616882,52.2341347,247.6191406,52.2341347z" style="fill: rgb(0, 0, 0);"/></g><g id="__id271_s1w77bue0b"><path d="M394.3424683,52.2341347c-2.6425476,0-4.7850952-2.1425438-4.7850952-4.7850914V4.7850914 C389.557373,2.1425433,391.6999207,0,394.3424683,0s4.7850952,2.1425433,4.7850952,4.7850914v42.6639519 C399.1275635,50.0915909,396.9850159,52.2341347,394.3424683,52.2341347z" style="fill: rgb(0, 0, 0);"/></g><g id="__id272_s1w77bue0b"><path d="M174.2563019,52.2341347c-2.6425476,0-4.7850952-2.1425438-4.7850952-4.7850914V4.7850914 C169.4712067,2.1425433,171.6137543,0,174.2563019,0s4.7850952,2.1425433,4.7850952,4.7850914v42.6639519 C179.0413971,50.0915909,176.8988495,52.2341347,174.2563019,52.2341347z" style="fill: rgb(0, 0, 0);"/></g><g id="__id273_s1w77bue0b"><path d="M100.8934631,52.2341347c-2.6425476,0-4.7850876-2.1425438-4.7850876-4.7850914V4.7850914 C96.1083755,2.1425433,98.2509155,0,100.8934631,0s4.7850952,2.1425433,4.7850952,4.7850914v42.6639519 C105.6785583,50.0915909,103.5360107,52.2341347,100.8934631,52.2341347z" style="fill: rgb(0, 0, 0);"/></g></g></svg>